<?xml version="1.0" encoding="utf-8"?><svg viewBox="0 0 512 512" xmlns="http://www.w3.org/2000/svg" xmlns:xlink="http://www.w3.org/1999/xlink"><style>:root>svg{display:none}:root>svg:target{display:block}</style><svg fill="none" viewBox="0 0 26 30" id="box" xmlns="http://www.w3.org/2000/svg"><path d="M13 1L1 9l12 8 12-8-12-8zM1 9v12l12 8"/><path d="M25 9v12l-12 8V17m-6-4l12-8M8 18l-3-2"/></svg><svg viewBox="0 0 32 32" id="dye" xmlns="http://www.w3.org/2000/svg"><path d="M25.637 24.976l2.358-2.357 2.356 2.357a3.333 3.333 0 11-4.714 0zM11.837 1.44l15.086 15.084a1.335 1.335 0 010 1.887L15.609 29.724a1.333 1.333 0 01-1.885 0L2.41 18.41a1.333 1.333 0 010-1.887l10.37-10.37-2.83-2.829 1.89-1.884h-.003zm2.83 6.6l-9.428 9.427h18.854L14.667 8.04z"/></svg><svg viewBox="0 0 24 24" id="email" xmlns="http://www.w3.org/2000/svg"><g clip-path="url(#cclip0_149_784)"><path d="M20.824 2.206H3.176A3.18 3.18 0 000 5.382v13.236a3.18 3.18 0 003.176 3.176h17.648A3.18 3.18 0 0024 18.618V5.382a3.18 3.18 0 00-3.176-3.176zm1.237 16.412c0 .682-.555 1.237-1.237 1.237H3.176a1.238 1.238 0 01-1.237-1.237V5.382c0-.682.555-1.237 1.237-1.237h17.648c.682 0 1.237.555 1.237 1.237v13.236z"/><path d="M23.825 4.826a.97.97 0 00-1.35-.238L12 11.92 1.525 4.587A.97.97 0 10.414 6.176l11.03 7.721a.968.968 0 001.112 0l11.03-7.721a.97.97 0 00.239-1.35z"/></g><defs><clipPath id="cclip0_149_784"><path d="M0 0h24v24H0z"/></clipPath></defs></svg><svg viewBox="0 0 20 20" id="founder-speech" xmlns="http://www.w3.org/2000/svg"><path d="M6.8 1.2a5.597 5.597 0 00-5.6 5.6v6.4c0 3.096 2.505 5.6 5.6 5.6h6.4c3.096 0 5.6-2.504 5.6-5.6V6.8c0-3.095-2.504-5.6-5.6-5.6H6.8zm0 .8h6.4a4.776 4.776 0 014.78 4.4H2.02A4.776 4.776 0 016.8 2zM2 7.2h16v6a4.78 4.78 0 01-4.8 4.8H6.8A4.78 4.78 0 012 13.2v-6z"/><path d="M4 9.6a.4.4 0 100 .8h12a.4.4 0 000-.8H4zm0 3.2a.4.4 0 100 .8h12a.4.4 0 000-.8H4z"/></svg><svg viewBox="0 0 16 16" id="kazan" xmlns="http://www.w3.org/2000/svg"><g clip-path="url(#eclip0_659_183)"><path d="M16 8.018c0 .245 0 .455-.035.7C15.615 12.814 12.184 16 7.982 16A7.979 7.979 0 010 8.018C0 3.606 3.571 0 8.018 0c4.2 0 7.632 3.221 7.982 7.282v.736z"/><path d="M7.002 5.007h-1.4v6.337h1.4V5.007zM16 8.018c0 .245 0 .455-.035.7H8.893v-1.4h7.072c.035.21.035.454.035.7z" fill="#101010"/><path d="M6.477 8.788l.56-.595v1.05l-.56-.455zM11.799 5.007L9.733 7.282l-.63.736-.21.21-.735.84-.98-1.05.98-1.086 1.75-1.925h1.89zM6.477 7.247l.56-.49v1.085l-.56-.595z" fill="#101010"/><path d="M12.114 11.344h-1.89L8.157 9.068l-.98-1.05.98-1.086.735.84.21.245.63.7 2.38 2.627z" fill="#101010"/></g><defs><clipPath id="eclip0_659_183"><path d="M0 0h16v16H0z"/></clipPath></defs></svg><svg viewBox="0 0 30 19" id="lorry" xmlns="http://www.w3.org/2000/svg"><path d="M22 8.636a.636.636 0 00-.636.637v1.273a.636.636 0 101.272 0V9.273A.636.636 0 0022 8.636zm5.09 1.273h-1.908V6.727a.636.636 0 00-.636-.636H20.09V1.636A.636.636 0 0019.454 1H1.636A.636.636 0 001 1.636v14c0 .352.285.637.636.637H4.3c-.071.2-.117.412-.117.636a1.909 1.909 0 103.818 0c0-.224-.046-.436-.117-.636h9.779c-.07.2-.116.412-.116.636a1.909 1.909 0 103.818 0 1.88 1.88 0 00-.113-.636h7.113a.636.636 0 00.636-.637v-3.818a1.91 1.91 0 00-1.91-1.909zm-21 7.636a.636.636 0 110-1.272.636.636 0 010 1.273zM2.274 15V2.273h16.545V15H2.273zm17.181 2.546a.636.636 0 110-1.273.636.636 0 010 1.273zM27.727 15h-7.636V7.364h3.818v3.818h3.182c.351 0 .636.284.636.636V15zM12.887 3.725a.631.631 0 10-.894.893L15.378 8H4.182a.636.636 0 100 1.273h11.196l-3.385 3.382a.63.63 0 10.894.893l4.468-4.466a.63.63 0 000-.892l-4.468-4.465z"/></svg><svg viewBox="0 0 56 13" id="market" xmlns="http://www.w3.org/2000/svg"><g clip-path="url(#gclip0_659_179)"><path d="M18.422 11.002h1.395l1.95-7.245v7.245h1.57V1.427H21.18L19.23 8.45l-1.95-7.023h-2.203v9.575h1.347V3.757l1.998 7.245zM29.9 6.262c0-1.696-.84-2.33-2.584-2.33-1.094 0-1.95.333-2.458.634v1.347c.428-.333 1.395-.681 2.252-.681.808 0 1.141.3 1.141 1.014v.38h-.254c-2.505 0-3.646.841-3.646 2.252 0 1.411.84 2.204 2.124 2.204.967 0 1.396-.302 1.697-.635h.079c0 .175.08.429.127.555h1.617a20.226 20.226 0 01-.08-1.696c-.015 0-.015-3.044-.015-3.044zM28.25 9.354c-.206.3-.587.555-1.189.555-.682 0-1.015-.429-1.015-1.015 0-.809.555-1.094 1.998-1.094h.254v1.57h-.048v-.016zm4.487-5.295h-1.522V13h1.648v-2.79c.428.634 1.015.935 1.744.935 1.617 0 2.711-1.268 2.711-3.599 0-2.33-1.062-3.598-2.631-3.598-.761 0-1.396.332-1.871 1.014.016-.016-.08-.903-.08-.903zm1.41 5.802c-.84 0-1.315-.713-1.315-2.283 0-1.617.46-2.33 1.395-2.33.888 0 1.347.713 1.347 2.282 0 1.618-.46 2.331-1.426 2.331zm8.292 1.141h1.87l-2.63-3.725 2.33-3.218h-1.65l-2.33 3.218V4.059h-1.648v6.943h1.648V7.61l2.41 3.392zm7.372-.46V9.196a4.222 4.222 0 01-2.156.634c-1.19 0-1.649-.555-1.744-1.744h3.932v-.887c0-2.41-1.063-3.298-2.711-3.298-1.998 0-2.965 1.522-2.965 3.646 0 2.41 1.19 3.6 3.266 3.6 1.157-.017 1.918-.27 2.378-.603zm-2.663-5.294c.808 0 1.062.681 1.062 1.521v.127h-2.299c.048-1.094.476-1.648 1.237-1.648zm8.592.126V4.06h-5.5v1.315h1.95v5.628h1.648V5.374h1.902zM6.357 12.715A6.357 6.357 0 106.357 0a6.357 6.357 0 000 12.715z"/><path d="M7.277 3.567h-.635c-1.093 0-1.648.555-1.648 1.395 0 .936.38 1.395 1.189 1.95l.634.46-1.823 2.838h-1.49l1.743-2.584c-1.014-.714-1.57-1.396-1.57-2.585 0-1.49 1.015-2.504 2.965-2.504h1.95v7.625H7.324v-6.61h-.047v.015z" fill="#101010"/></g><defs><clipPath id="gclip0_659_179"><path d="M0 0h55.742v13H0z"/></clipPath></defs></svg><svg viewBox="0 0 56 12" id="ozon" xmlns="http://www.w3.org/2000/svg"><path d="M6.417 9.171a3.2 3.2 0 002.754-2.754 3.202 3.202 0 00-3.6-3.588c-1.421.187-2.58 1.333-2.755 2.754A3.202 3.202 0 006.417 9.17zm.2-9.146c2.828.299 5.059 2.53 5.358 5.358a6.001 6.001 0 01-6.58 6.58A6.021 6.021 0 01.038 6.604c-.386-3.788 2.78-6.953 6.58-6.58zm8.573.25h8.785c.336 0 .523.385.324.647l-6.08 8.025h4.76c.872 0 1.544.785 1.37 1.695-.137.66-.748 1.109-1.42 1.109h-9.546a.396.396 0 01-.324-.636L19.14 3.09h-3.913c-.672 0-1.296-.448-1.42-1.109-.162-.922.51-1.707 1.383-1.707zm38.13.024a1.406 1.406 0 011.708 1.37v9.658a.398.398 0 01-.648.312l-7.576-6.007v4.71c0 .873-.798 1.558-1.707 1.371-.648-.137-1.097-.747-1.097-1.408V.673c0-.337.386-.523.648-.312l7.576 6.007v-4.66c0-.661.449-1.272 1.097-1.409zM33.584 0c4.635 0 8.398 2.692 8.398 5.994 0 3.302-3.763 5.994-8.398 5.994-4.636 0-8.4-2.692-8.4-5.994 0-3.302 3.764-5.994 8.4-5.994zm0 2.804c-3.203 0-5.595 1.694-5.595 3.202S30.38 9.21 33.583 9.21c3.202 0 5.595-1.695 5.595-3.203 0-1.508-2.393-3.202-5.595-3.202z"/></svg><svg viewBox="0 0 16 16" id="phone" xmlns="http://www.w3.org/2000/svg"><path d="M15.829 12.134c-.596-1.126-2.664-2.347-2.756-2.4a1.643 1.643 0 00-.802-.232.999.999 0 00-.893.499c-.303.362-.678.785-.769.85-.705.478-1.256.424-1.867-.186L5.335 7.257c-.606-.607-.662-1.165-.187-1.866.066-.092.49-.467.851-.77a.986.986 0 00.459-.592c.092-.333.024-.725-.194-1.107C6.213 2.834 4.991.765 3.866.17a1.467 1.467 0 00-1.719.259l-.753.752C.204 2.371-.227 3.721.113 5.192c.283 1.226 1.11 2.53 2.456 3.877l4.362 4.362C8.635 15.136 10.26 16 11.76 16c1.103 0 2.132-.469 3.056-1.394l.752-.752a1.456 1.456 0 00.26-1.72z"/></svg><svg viewBox="0 0 28 28" id="schedule" xmlns="http://www.w3.org/2000/svg"><path d="M6.992 3.502v1.162H3.496a1.167 1.167 0 00-1.163 1.17v18.66a1.167 1.167 0 001.163 1.172h21a1.167 1.167 0 001.17-1.173V5.835a1.167 1.167 0 00-1.17-1.171h-3.497V3.502c-.02-1.567-2.353-1.55-2.336 0v1.162H9.326V3.502c.002-1.56-2.331-1.557-2.334 0zM4.667 6.996h2.325V8.17c0 1.56 2.334 1.538 2.334 0V6.996h9.337V8.17c0 1.575 2.336 1.537 2.336 0V6.996h2.334v3.507H4.667V6.996zm0 5.83h18.666v10.505H4.667V12.826zm2.325 4.171c-1.455 0-1.548 2.336 0 2.336h2.334c1.589.002 1.625-2.33 0-2.336H6.992zm5.841 0c-1.554.005-1.59 2.338 0 2.336h2.334c1.563.002 1.654-2.33 0-2.336h-2.334zm5.83 0c-1.532.005-1.55 2.338 0 2.336h2.336c1.547 0 1.637-2.33 0-2.336h-2.336z"/></svg><svg fill="none" viewBox="0 0 14 26" id="slider-arrow" xmlns="http://www.w3.org/2000/svg"><path d="M1 1l11.293 11.293a1 1 0 010 1.414L1 25"/></svg><svg viewBox="0 0 12 16" id="subtitle-arrow" xmlns="http://www.w3.org/2000/svg"><path d="M0 13.532V2.968C0 1.326 1.87.384 3.19 1.36l7.138 5.282a2 2 0 010 3.216L3.19 15.14c-1.32.976-3.19.034-3.19-1.608z"/></svg><svg viewBox="0 0 16 16" id="telegram" xmlns="http://www.w3.org/2000/svg"><g clip-path="url(#mclip0_149_809)"><path d="M14.701 1.42L.526 6.913c-.57.256-.764.768-.138 1.046l3.637 1.162 8.792-5.462c.48-.343.972-.252.549.126l-7.552 6.873-.237 2.908c.22.45.622.451.879.228l2.089-1.987 3.578 2.693c.831.495 1.284.176 1.462-.73l2.347-11.172c.244-1.115-.171-1.607-1.23-1.18z"/></g><defs><clipPath id="mclip0_149_809"><path d="M0 0h16v16H0z"/></clipPath></defs></svg><svg viewBox="0 0 28 27" id="tick" xmlns="http://www.w3.org/2000/svg"><path d="M25.643 11.123c-.624 0-1.13.507-1.13 1.131v1.14a11.052 11.052 0 01-3.264 7.864 11.052 11.052 0 01-7.862 3.254h-.006C7.246 24.51 2.259 19.515 2.262 13.381a11.052 11.052 0 013.263-7.865 11.052 11.052 0 017.862-3.254h.007c1.568.001 3.089.325 4.521.963a1.131 1.131 0 10.92-2.066A13.303 13.303 0 0013.396 0h-.008a13.3 13.3 0 00-9.46 3.916A13.3 13.3 0 000 13.38a13.3 13.3 0 003.916 9.468 13.3 13.3 0 009.463 3.926h.008a13.3 13.3 0 009.461-3.915 13.3 13.3 0 003.926-9.465v-1.14a1.13 1.13 0 00-1.13-1.13z"/><path d="M27.669 1.565a1.131 1.131 0 00-1.6 0L13.387 14.247 10.51 11.37a1.131 1.131 0 10-1.6 1.6l3.678 3.676a1.127 1.127 0 001.6 0l13.48-13.482a1.131 1.131 0 000-1.6z"/></svg><svg viewBox="0 0 16 29" id="title-arrow" xmlns="http://www.w3.org/2000/svg"><path d="M0 27.655a1.335 1.335 0 00.398.951 1.358 1.358 0 001.485.287c.167-.07.318-.171.445-.299L15.612 15.43a1.324 1.324 0 000-1.871L2.328.394A1.369 1.369 0 00.847.101a1.362 1.362 0 00-.613.493c-.15.221-.232.48-.234.747v26.314z"/></svg><svg viewBox="0 0 512 512" id="viber" xmlns="http://www.w3.org/2000/svg"><path d="M444 49.9C431.3 38.2 379.9.9 265.3.4c0 0-135.1-8.1-200.9 52.3C27.8 89.3 14.9 143 13.5 209.5c-1.4 66.5-3.1 191.1 117 224.9h.1l-.1 51.6s-.8 20.9 13 25.1c16.6 5.2 26.4-10.7 42.3-27.8 8.7-9.4 20.7-23.2 29.8-33.7 82.2 6.9 145.3-8.9 152.5-11.2 16.6-5.4 110.5-17.4 125.7-142 15.8-128.6-7.6-209.8-49.8-246.5zM457.9 287c-12.9 104-89 110.6-103 115.1-6 1.9-61.5 15.7-131.2 11.2 0 0-52 62.7-68.2 79-5.3 5.3-11.1 4.8-11-5.7 0-6.9.4-85.7.4-85.7-.1 0-.1 0 0 0-101.8-28.2-95.8-134.3-94.7-189.8 1.1-55.5 11.6-101 42.6-131.6 55.7-50.5 170.4-43 170.4-43 96.9.4 143.3 29.6 154.1 39.4 35.7 30.6 53.9 103.8 40.6 211.1zm-139-80.8c.4 8.6-12.5 9.2-12.9.6-1.1-22-11.4-32.7-32.6-33.9-8.6-.5-7.8-13.4.7-12.9 27.9 1.5 43.4 17.5 44.8 46.2zm20.3 11.3c1-42.4-25.5-75.6-75.8-79.3-8.5-.6-7.6-13.5.9-12.9 58 4.2 88.9 44.1 87.8 92.5-.1 8.6-13.1 8.2-12.9-.3zm47 13.4c.1 8.6-12.9 8.7-12.9.1-.6-81.5-54.9-125.9-120.8-126.4-8.5-.1-8.5-12.9 0-12.9 73.7.5 133 51.4 133.7 139.2zM374.9 329v.2c-10.8 19-31 40-51.8 33.3l-.2-.3c-21.1-5.9-70.8-31.5-102.2-56.5-16.2-12.8-31-27.9-42.4-42.4-10.3-12.9-20.7-28.2-30.8-46.6-21.3-38.5-26-55.7-26-55.7-6.7-20.8 14.2-41 33.3-51.8h.2c9.2-4.8 18-3.2 23.9 3.9 0 0 12.4 14.8 17.7 22.1 5 6.8 11.7 17.7 15.2 23.8 6.1 10.9 2.3 22-3.7 26.6l-12 9.6c-6.1 4.9-5.3 14-5.3 14s17.8 67.3 84.3 84.3c0 0 9.1.8 14-5.3l9.6-12c4.6-6 15.7-9.8 26.6-3.7 14.7 8.3 33.4 21.2 45.8 32.9 7 5.7 8.6 14.4 3.8 23.6z"/></svg><svg viewBox="0 0 30 13" id="wb" xmlns="http://www.w3.org/2000/svg"><g clip-path="url(#qclip0_659_176)"><path d="M3.472 13L0 0h2.288l2.664 9.986L7.805 0h2.127l2.88 10.04L15.503 0h2.288l-3.5 13-2.637-.027-2.772-9.69L6.11 13H3.472zM29.284 9.286c0 1.076-.377 1.938-1.13 2.637-.754.7-1.67 1.077-2.773 1.077H19.81V0h5.14c1.077 0 1.965.35 2.692 1.023.753.7 1.103 1.534 1.103 2.557 0 1.13-.457 2.018-1.319 2.637 1.158.62 1.858 1.723 1.858 3.069zm-7.321-7.267v3.418h3.014c.942 0 1.669-.754 1.669-1.696 0-.969-.727-1.695-1.669-1.695h-3.014v-.027zm3.418 8.99c.996 0 1.776-.808 1.776-1.83 0-1.024-.78-1.804-1.776-1.804h-3.418v3.633h3.418z"/></g><defs><clipPath id="qclip0_659_176"><path d="M0 0h29.284v13H0z"/></clipPath></defs></svg><svg viewBox="0 0 16 12" id="youtube" xmlns="http://www.w3.org/2000/svg"><path d="M15.993 6.248c-.005-.142-.01-.284-.013-.426-.022-.824-.032-1.65-.078-2.473-.045-.804-.307-1.548-.623-2.283-.108-.252-.376-.458-.617-.612C14.26.197 13.72.14 13.259.106 12.64.061 12.02.062 11.402.046 10.65.027 9.899.1 9.15.053A38.323 38.323 0 006.893 0C6.03-.002 5.169.023 4.307.033c-.424.005-.85.007-1.275 0-.356-.007-.977.031-1.31.168C1.057.473.876.774.518 1.416c-.185.33-.256.697-.28 1.077-.023.379-.194.736-.184 1.112C.07 4.19-.001 4.77 0 5.352c.003 1.57-.01 3.152.664 4.59l.156.273c.108.145.149.34.274.464.258.257.772.307 1.112.349.424.052.853.053 1.279.088.7.056 1.435-.019 2.137.017.705.035 1.403.05 2.11.032 1.72-.045 3.436.072 5.155-.053.706-.051 1.592.104 2.105-.487.475-.546.66-1.268.806-1.959.168-.79.223-1.61.195-2.418zm-6.187.193c-.242.164-.504.292-.757.436-.515.294-1.01.638-1.512.954-.13.082-1.114.558-1.114.558.014-.41.004-.784-.01-1.176-.015-.411.003-.822-.003-1.234-.004-.246-.002-2.206-.003-2.587v-.66c.125.08.299.162.422.246.231.157.458.32.688.48.24.17.498.305.751.451.51.293.93.71 1.455.982.41.213.79.464 1.184.704-.03-.019-.882.697-1.1.846z"/></svg></svg>